<?xml version="1.0" standalone="no"?>
<!DOCTYPE svg PUBLIC "-//W3C//DTD SVG 20010904//EN"
 "http://www.w3.org/TR/2001/REC-SVG-20010904/DTD/svg10.dtd">
<svg version="1.0" xmlns="http://www.w3.org/2000/svg"
 width="200.000000pt" height="200.000000pt" viewBox="0 0 200.000000 200.000000"
 preserveAspectRatio="xMidYMid meet">
<metadata>
Created by potrace 1.14, written by Peter Selinger 2001-2017
</metadata>
<g transform="translate(0.000000,200.000000) scale(0.100000,-0.100000)"
fill="#000000" stroke="none">
<path d="M829 1984 c-107 -19 -306 -92 -317 -116 -2 -5 -8 -8 -14 -8 -19 0
-132 -87 -191 -147 -148 -150 -242 -334 -274 -533 -10 -58 -9 -263 0 -315 26
-139 72 -256 142 -366 45 -71 72 -104 142 -174 132 -134 188 -175 316 -235
133 -62 230 -83 387 -84 173 -1 245 12 382 70 209 87 382 251 486 459 117 235
128 504 31 787 -137 398 -489 662 -899 672 -63 1 -149 -3 -191 -10z"/>
</g>
</svg>
