<?xml version="1.0" standalone="no"?>
<!DOCTYPE svg PUBLIC "-//W3C//DTD SVG 20010904//EN"
 "http://www.w3.org/TR/2001/REC-SVG-20010904/DTD/svg10.dtd">
<svg version="1.0" xmlns="http://www.w3.org/2000/svg"
 width="92.000000pt" height="92.000000pt" viewBox="0 0 92.000000 92.000000"
 preserveAspectRatio="xMidYMid meet">
<metadata>
Created by potrace 1.14, written by Peter Selinger 2001-2017
</metadata>
<g transform="translate(0.000000,92.000000) scale(0.100000,-0.100000)"
fill="#000000" stroke="none">
<path d="M30 895 c0 -8 5 -15 11 -15 5 0 7 5 4 10 -3 6 -2 10 4 10 6 0 9 -14
7 -31 -3 -23 -1 -28 8 -19 6 6 11 22 11 35 1 20 -4 25 -22 25 -14 0 -23 -6
-23 -15z"/>
<path d="M108 890 c12 -12 29 -32 38 -46 12 -17 20 -21 29 -14 8 6 16 6 25 -3
7 -6 5 0 -5 16 -19 29 -31 34 -38 15 -2 -8 -12 1 -23 19 -11 18 -25 33 -33 33
-10 0 -8 -6 7 -20z"/>
<path d="M140 890 c9 -16 40 -19 40 -3 0 3 -7 3 -15 -1 -8 -3 -15 -1 -15 4 0
5 10 11 23 13 16 3 13 5 -11 6 -30 1 -32 -1 -22 -19z"/>
<path d="M228 903 c7 -3 16 -2 19 1 4 3 -2 6 -13 5 -11 0 -14 -3 -6 -6z"/>
<path d="M303 903 c9 -2 17 -8 17 -13 0 -5 -6 -7 -14 -4 -8 3 -16 -3 -19 -16
-6 -23 1 -50 12 -50 11 1 42 50 31 50 -8 0 -8 6 0 20 10 18 8 20 -17 19 -17
-1 -21 -3 -10 -6z m17 -44 c0 -6 -4 -7 -10 -4 -5 3 -10 11 -10 16 0 6 5 7 10
4 6 -3 10 -11 10 -16z"/>
<path d="M346 894 c-6 -15 -4 -15 11 -3 10 7 20 15 22 16 2 2 -3 3 -11 3 -9 0
-19 -7 -22 -16z"/>
<path d="M400 890 c6 -12 7 -20 1 -20 -5 0 -2 -15 7 -32 10 -21 16 -57 16 -98
0 -61 -1 -65 -22 -65 -13 0 -27 -7 -33 -15 -9 -12 -10 -11 -6 6 4 20 2 21 -27
13 -17 -5 -32 -9 -33 -9 -11 0 0 -29 13 -34 12 -5 15 -2 10 10 -4 10 -2 14 6
11 7 -2 12 -11 12 -19 -1 -10 5 -14 16 -11 12 3 24 -5 36 -26 10 -17 22 -31
26 -31 4 0 4 -8 1 -17 -5 -12 -2 -15 10 -10 9 3 17 2 17 -3 0 -6 -5 -10 -11
-10 -6 0 -9 -6 -6 -12 2 -7 -5 -26 -16 -42 -12 -16 -16 -27 -11 -23 5 3 16 2
24 -4 12 -7 11 -9 -5 -9 -11 0 -15 -4 -10 -8 7 -4 5 -18 -6 -39 -9 -18 -20
-29 -24 -25 -4 4 3 -13 15 -38 13 -25 27 -53 32 -63 11 -22 -19 -70 -39 -63
-8 4 -11 1 -8 -5 4 -6 13 -8 21 -5 21 8 17 1 -15 -32 -22 -21 -31 -26 -35 -16
-3 8 -16 13 -30 12 -13 -1 -22 -6 -19 -11 2 -4 0 -13 -5 -20 -16 -20 -23 -65
-11 -72 6 -4 8 -13 5 -21 -3 -7 -1 -16 4 -19 6 -4 10 5 10 18 0 27 36 74 54
69 6 -2 8 0 4 3 -4 4 4 16 17 27 14 11 23 24 20 29 -4 5 1 9 9 9 14 0 14 -3 4
-20 -7 -11 -16 -20 -21 -20 -4 0 -6 -4 -2 -10 3 -5 12 -7 20 -4 14 6 14 2 5
-41 -5 -22 1 -36 11 -29 8 4 7 9 -2 15 -10 6 -10 9 -2 9 21 0 27 -23 10 -35
-10 -7 -17 -16 -17 -20 0 -4 6 -2 14 4 8 7 16 8 18 4 3 -4 3 -2 2 4 -2 7 2 13
8 13 7 0 7 4 0 13 -6 6 -17 31 -25 54 -14 41 -14 44 8 67 13 14 21 27 18 30
-3 3 4 17 16 32 18 23 25 24 23 3 -1 -3 6 -6 14 -7 7 -1 21 -3 29 -4 9 -1 14
-7 10 -15 -3 -8 -5 -18 -5 -21 0 -4 -4 -1 -9 7 -5 7 -11 9 -14 4 -3 -5 3 -15
15 -22 11 -7 17 -8 13 -2 -6 10 8 16 28 12 5 -1 -1 12 -13 29 -12 16 -18 34
-15 40 3 5 2 10 -3 10 -11 0 -13 48 -2 55 4 2 6 -7 4 -20 -1 -14 1 -25 6 -25
13 0 20 42 9 64 -8 18 -8 19 3 4 12 -16 14 -16 34 9 l21 26 29 -41 c29 -41 52
-56 40 -26 -3 9 -2 12 5 9 11 -7 3 37 -12 66 -5 9 -6 19 -3 21 2 3 -6 5 -19 4
-14 -1 -36 -15 -52 -34 -20 -23 -31 -30 -38 -23 -15 15 -27 14 -27 -2 0 -7
-11 -28 -25 -47 l-25 -34 0 81 c0 45 -3 84 -7 86 -5 3 -7 -33 -5 -81 l4 -85
-25 29 c-32 38 -43 102 -23 129 18 23 21 45 6 45 -5 0 -7 -8 -4 -17 5 -17 5
-17 -6 0 -14 22 -4 39 21 32 12 -4 21 -1 25 10 6 14 8 13 21 -5 11 -16 18 -18
28 -10 10 9 16 7 24 -8 8 -16 7 -21 -5 -26 -12 -5 -15 -2 -10 11 6 14 5 15 -5
6 -10 -10 -9 -15 1 -28 16 -20 41 -20 34 0 -4 11 -2 13 9 9 8 -3 18 -1 22 5 3
6 0 9 -8 5 -20 -7 -50 41 -39 63 5 10 16 32 24 49 14 29 14 32 -4 43 -11 7
-21 11 -21 9 -1 -2 -13 -23 -25 -47 -14 -25 -18 -40 -10 -36 7 5 10 5 6 0 -4
-4 -3 -14 3 -22 8 -9 8 -13 1 -13 -21 0 -32 39 -32 114 0 50 4 76 13 79 6 3 3
5 -8 4 -19 -1 -20 -7 -17 -86 l3 -86 -21 25 c-11 14 -23 36 -26 50 -4 14 -11
30 -16 37 -10 13 17 63 34 63 6 0 5 6 -2 15 -7 8 -16 12 -21 9 -16 -9 -10 13
7 27 9 7 14 22 11 36 -2 13 0 23 5 23 5 0 6 5 2 11 -10 17 -23 -9 -16 -34 3
-13 1 -18 -6 -13 -6 3 -8 16 -6 29 12 52 8 81 -11 73 -8 -3 -15 -1 -15 4 0 5
8 11 18 13 10 3 6 5 -11 6 -25 1 -27 -1 -17 -19z m27 -30 c-1 -12 -5 -16 -10
-11 -5 5 -6 14 -3 20 11 16 15 13 13 -9z m14 -153 c-10 -9 -11 -8 -5 6 3 10 9
15 12 12 3 -3 0 -11 -7 -18z m-38 -66 c-3 -10 0 -22 6 -25 7 -4 8 -1 5 8 -3 9
-2 16 3 16 5 0 9 -9 10 -20 1 -11 14 -35 28 -54 25 -33 27 -56 3 -56 -7 0 -7
4 1 14 8 10 8 16 -2 25 -8 6 -18 7 -22 3 -5 -4 -5 -1 0 7 5 9 3 18 -6 25 -29
23 -51 55 -44 65 11 18 23 12 18 -8z m155 -81 c2 -30 -12 -42 -21 -17 -4 10 9
47 16 47 2 0 4 -13 5 -30z m106 -174 c-3 -13 -1 -27 5 -30 7 -4 8 -1 5 8 -3 9
-2 16 3 16 5 0 9 -9 10 -20 2 -25 -9 -25 -32 0 -15 16 -15 22 -5 35 18 21 21
19 14 -9z m-239 -26 c-2 -11 8 -32 27 -52 33 -36 56 -44 65 -22 8 22 18 16 18
-11 0 -27 -3 -29 -24 -16 -8 5 -24 6 -37 1 -18 -7 -21 -6 -17 10 3 10 0 21 -6
24 -7 4 -8 1 -5 -8 3 -9 2 -16 -4 -16 -6 0 -9 8 -8 18 2 9 -5 27 -15 40 -10
13 -15 30 -12 38 8 21 22 17 18 -6z m35 -130 c0 -5 -4 -10 -10 -10 -5 0 -7 -6
-4 -14 3 -8 1 -17 -5 -21 -7 -4 -8 0 -4 11 5 12 3 15 -6 9 -10 -6 -11 -3 -2
14 12 22 31 29 31 11z m-140 -143 c-18 -17 -29 -25 -23 -17 6 8 9 23 7 33 -2
13 2 17 12 13 12 -5 14 -1 9 17 -7 21 -6 21 11 4 18 -17 17 -18 -16 -50z"/>
<path d="M493 860 c0 -30 2 -43 4 -27 2 15 2 39 0 55 -2 15 -4 2 -4 -28z"/>
<path d="M563 903 c9 -2 23 -2 30 0 6 3 -1 5 -18 5 -16 0 -22 -2 -12 -5z"/>
<path d="M607 896 c-4 -9 0 -13 11 -11 9 1 27 -9 38 -24 l22 -26 -4 32 c-3 24
1 33 14 36 10 3 6 5 -10 6 -22 1 -26 -3 -22 -16 5 -17 5 -17 -9 0 -17 21 -33
22 -40 3z"/>
<path d="M778 903 c6 -2 18 -2 25 0 6 3 1 5 -13 5 -14 0 -19 -2 -12 -5z"/>
<path d="M829 901 c8 -5 21 -7 29 -4 12 5 12 2 3 -15 -15 -29 -28 -35 -35 -16
-4 10 -2 13 6 8 7 -4 8 -3 4 4 -20 32 -30 -2 -17 -57 1 -2 15 14 32 35 17 21
35 42 40 45 6 3 -9 6 -33 7 -29 1 -38 -1 -29 -7z"/>
<path d="M539 855 c-9 -19 -12 -35 -7 -35 5 0 6 -5 3 -10 -4 -6 -12 -7 -18 -3
-7 3 -4 -3 6 -14 25 -28 21 -40 -5 -16 -42 37 -52 37 -23 0 20 -24 33 -33 41
-27 6 6 13 8 15 5 3 -2 5 5 6 16 1 11 -2 17 -8 14 -5 -4 -9 1 -9 9 0 10 6 13
15 10 10 -4 15 0 15 14 0 11 7 25 15 32 13 11 13 14 -2 26 -25 18 -26 18 -44
-21z m21 -36 c0 -6 -4 -7 -10 -4 -5 3 -10 11 -10 16 0 6 5 7 10 4 6 -3 10 -11
10 -16z"/>
<path d="M101 864 c0 -11 3 -14 6 -6 3 7 2 16 -1 19 -3 4 -6 -2 -5 -13z"/>
<path d="M16 845 c-15 -23 -15 -25 3 -35 29 -15 32 -13 29 21 -3 40 -12 44
-32 14z m19 -25 c3 -6 -1 -7 -9 -4 -18 7 -21 14 -7 14 6 0 13 -4 16 -10z"/>
<path d="M232 845 c0 -16 2 -22 5 -12 2 9 2 23 0 30 -3 6 -5 -1 -5 -18z"/>
<path d="M361 854 c0 -11 3 -14 6 -6 3 7 2 16 -1 19 -3 4 -6 -2 -5 -13z"/>
<path d="M689 870 c-8 -35 -8 -70 0 -70 6 0 10 5 9 11 -2 6 3 14 11 17 9 3 11
0 6 -8 -5 -8 -4 -11 1 -7 6 3 15 -2 21 -12 9 -14 7 -20 -8 -29 -10 -7 -19 -8
-19 -3 0 5 5 11 12 13 9 3 9 6 0 12 -7 4 -12 2 -12 -4 0 -6 -4 -9 -8 -6 -4 2
-9 -5 -9 -16 -1 -11 1 -18 4 -14 3 3 12 1 19 -5 10 -8 16 -5 26 10 14 23 29
28 26 9 -2 -8 7 -13 22 -13 20 -1 24 -5 22 -22 -2 -16 2 -21 16 -20 19 1 19 2
-1 34 -11 19 -14 33 -8 33 17 0 13 27 -5 34 -9 4 -14 13 -10 22 8 21 -11 8
-25 -18 -6 -11 -7 -18 -1 -14 8 5 26 -33 19 -41 -5 -4 -61 50 -84 82 -12 17
-23 28 -24 25z m121 -65 c7 -9 8 -15 2 -15 -5 0 -12 7 -16 15 -3 8 -4 15 -2
15 2 0 9 -7 16 -15z"/>
<path d="M260 820 c-6 -11 -18 -17 -29 -15 -13 2 -18 -1 -15 -9 3 -7 -2 -19
-11 -26 -14 -12 -16 -11 -10 12 4 15 2 29 -4 32 -7 4 -8 1 -5 -8 3 -9 1 -16
-5 -16 -6 0 -10 -3 -10 -7 3 -20 -2 -34 -20 -52 -18 -18 -18 -18 6 -18 16 0
23 5 22 16 -2 28 0 30 32 21 25 -8 29 -7 19 5 -7 8 -7 15 -1 19 5 3 11 1 13
-5 2 -6 15 -13 29 -14 18 -2 25 2 25 16 0 10 -7 21 -14 24 -10 3 -12 0 -8 -10
3 -8 1 -15 -4 -15 -16 0 -22 21 -10 36 10 11 16 12 27 3 21 -18 22 -6 2 13
-18 17 -19 17 -29 -2z"/>
<path d="M102 790 c0 -19 2 -27 5 -17 2 9 2 25 0 35 -3 9 -5 1 -5 -18z"/>
<path d="M8 788 c15 -15 16 -32 2 -23 -5 3 -10 2 -10 -4 0 -5 9 -9 20 -8 30 2
17 46 -14 47 -6 0 -5 -5 2 -12z"/>
<path d="M459 764 c-12 -14 -11 -16 5 -13 11 2 21 10 24 17 5 17 -13 15 -29
-4z"/>
<path d="M352 734 c-7 -8 -8 -14 -3 -14 10 0 25 19 20 25 -2 1 -10 -3 -17 -11z"/>
<path d="M873 735 c-9 -10 -6 -12 14 -12 14 0 21 2 17 6 -5 3 -11 9 -14 13 -3
3 -10 0 -17 -7z"/>
<path d="M18 729 c-3 -8 3 -27 13 -43 11 -19 14 -34 9 -45 -34 -63 -39 -82
-24 -88 18 -7 18 -32 -1 -39 -22 -9 -18 -23 5 -21 14 1 20 8 20 27 0 14 12 45
26 70 14 25 22 42 18 38 -9 -10 -43 54 -36 70 3 9 7 10 11 3 4 -6 11 -3 19 9
11 18 10 19 -13 10 -19 -7 -26 -6 -33 7 -8 13 -10 13 -14 2z m45 -103 c3 -8 0
-22 -7 -31 -11 -15 -12 -13 -12 14 0 32 10 41 19 17z m-30 -60 c4 -10 1 -13
-8 -9 -8 3 -12 9 -9 14 7 12 11 11 17 -5z"/>
<path d="M191 724 c0 -11 3 -14 6 -6 3 7 2 16 -1 19 -3 4 -6 -2 -5 -13z"/>
<path d="M299 731 c7 -5 9 -11 5 -13 -5 -3 -3 -3 4 -2 6 2 12 -2 12 -8 0 -6 3
-8 6 -5 9 8 -15 37 -30 37 -6 0 -5 -4 3 -9z"/>
<path d="M555 730 c-3 -5 -3 -16 0 -22 4 -7 -1 -4 -9 6 -9 11 -16 15 -16 10 0
-14 22 -34 37 -34 10 0 11 5 4 19 -6 10 -7 21 -4 25 3 3 4 6 0 6 -3 0 -9 -4
-12 -10z"/>
<path d="M682 712 c0 -15 0 -30 -1 -34 -1 -4 -15 -2 -33 3 -24 7 -29 6 -20 -3
9 -9 7 -18 -11 -37 -12 -14 -15 -20 -6 -13 11 8 19 8 26 1 8 -8 11 -6 10 6 -1
10 3 19 8 21 6 2 10 -7 10 -21 0 -14 -3 -25 -7 -25 -6 0 8 -32 29 -69 2 -2 9
2 17 9 13 10 20 7 40 -17 14 -15 26 -32 26 -36 0 -5 10 -7 23 -5 13 2 21 -2
20 -9 -2 -7 2 -13 8 -13 5 0 8 -4 5 -8 -3 -5 1 -9 9 -9 11 0 10 6 -5 26 -13
20 -16 31 -8 45 7 13 5 21 -9 31 -15 11 -16 16 -5 27 11 11 13 11 10 -1 -2 -7
2 -15 8 -18 14 -5 14 28 0 46 -9 12 -7 12 14 2 24 -11 24 -11 6 3 -24 19 -36
20 -36 3 0 -7 -12 -30 -26 -51 l-26 -38 -24 28 c-12 16 -29 48 -37 72 -14 40
-13 43 8 66 13 14 20 27 17 30 -3 3 -11 -2 -19 -12 -11 -15 -12 -15 -7 -1 3
10 1 20 -4 23 -5 3 -9 -7 -10 -22z m4 -94 c-1 -13 5 -28 14 -35 12 -10 13 -14
2 -25 -11 -11 -12 -10 -7 3 4 10 0 19 -8 22 -15 5 -21 57 -7 57 4 0 7 -10 6
-22z m129 -87 c-3 -3 -11 1 -16 9 -9 12 -10 10 -6 -7 3 -15 1 -20 -9 -16 -17
6 -18 15 -2 31 8 8 15 9 25 0 7 -6 11 -13 8 -17z"/>
<path d="M387 719 c7 -7 15 -10 18 -7 3 3 -2 9 -12 12 -14 6 -15 5 -6 -5z"/>
<path d="M590 720 c-9 -6 -10 -10 -3 -10 6 0 15 5 18 10 8 12 4 12 -15 0z"/>
<path d="M251 711 c-8 -5 -21 -7 -30 -4 -13 4 -14 3 -2 -5 13 -9 41 -3 60 14
9 8 -15 3 -28 -5z"/>
<path d="M747 692 c3 -7 9 -10 12 -5 3 4 10 11 15 15 4 4 -1 6 -12 5 -12 -1
-18 -6 -15 -15z"/>
<path d="M166 684 c-3 -9 -11 -12 -18 -8 -26 16 -45 11 -41 -10 4 -21 4 -21
-11 -2 -11 14 -19 17 -27 9 -7 -7 0 -16 25 -31 33 -20 36 -20 55 -4 10 9 22
27 26 40 7 25 0 30 -9 6z m-26 -39 c-7 -9 -15 -13 -17 -11 -7 7 7 26 19 26 6
0 6 -6 -2 -15z"/>
<path d="M290 689 c0 -5 5 -7 10 -4 6 3 10 8 10 11 0 2 -4 4 -10 4 -5 0 -10
-5 -10 -11z"/>
<path d="M818 693 c7 -3 16 -2 19 1 4 3 -2 6 -13 5 -11 0 -14 -3 -6 -6z"/>
<path d="M590 680 c0 -7 -6 -10 -13 -7 -7 3 -13 -3 -13 -14 0 -10 7 -21 14
-24 10 -4 12 0 8 11 -4 12 -1 14 14 9 24 -7 26 7 5 25 -12 10 -15 10 -15 0z"/>
<path d="M858 680 c-15 -4 -29 -5 -32 -2 -3 3 -6 -5 -6 -18 0 -18 3 -20 14
-11 7 6 21 8 30 5 14 -5 14 -9 4 -22 -10 -12 -5 -11 20 3 30 18 44 45 22 45
-5 0 -10 -7 -10 -15 0 -8 -5 -15 -11 -15 -6 0 -9 9 -6 20 3 11 4 20 4 19 -1 0
-14 -4 -29 -9z"/>
<path d="M147 616 c-10 -8 -14 -16 -9 -17 4 -2 15 -25 23 -50 14 -43 14 -49
-1 -69 -15 -19 -20 -21 -40 -10 -13 7 -26 8 -31 3 -5 -5 -1 -9 9 -10 57 -6
110 -23 70 -23 -11 0 -14 -6 -11 -19 3 -10 0 -22 -6 -25 -17 -11 -13 -26 4
-20 8 4 15 16 15 29 0 12 7 28 15 35 8 7 15 18 15 24 0 6 -5 4 -10 -4 -10 -15
-10 -15 -10 27 0 4 10 7 23 7 12 0 25 7 29 16 6 13 7 12 7 -2 1 -26 58 -20 64
6 3 12 -46 34 -65 31 -11 -2 -25 9 -39 31 -15 24 -27 33 -38 30 -11 -4 -11 -2
3 9 11 8 16 15 10 15 -5 0 -17 -7 -27 -14z m73 -87 c0 -4 -7 -12 -16 -20 -13
-11 -14 -9 -9 13 4 15 2 29 -4 32 -7 4 -8 1 -5 -8 3 -9 1 -16 -5 -16 -6 0 -10
13 -9 30 l2 30 23 -28 c12 -15 22 -30 23 -33z m60 -21 c0 -6 -7 -5 -15 2 -8 7
-15 17 -15 22 0 6 7 5 15 -2 8 -7 15 -17 15 -22z"/>
<path d="M279 596 c-14 -31 -14 -34 4 -45 10 -7 20 -11 20 -9 1 2 9 17 18 34
15 29 15 32 -2 42 -24 15 -21 17 -40 -22z m17 -26 c0 -12 -4 -16 -9 -11 -5 5
-6 14 -3 20 10 15 12 14 12 -9z"/>
<path d="M362 595 c0 -16 2 -22 5 -12 2 9 2 23 0 30 -3 6 -5 -1 -5 -18z"/>
<path d="M5 530 c3 -5 8 -10 11 -10 2 0 4 5 4 10 0 6 -5 10 -11 10 -5 0 -7 -4
-4 -10z"/>
<path d="M703 533 c-7 -2 -13 -13 -13 -24 0 -10 6 -19 13 -20 6 0 21 -2 33 -3
16 -2 20 2 16 16 -5 21 -13 23 -31 6 -11 -11 -12 -9 -6 10 3 12 5 22 3 21 -2
0 -9 -3 -15 -6z"/>
<path d="M287 464 c3 -10 0 -12 -10 -8 -8 3 -18 1 -22 -5 -3 -6 0 -9 8 -5 8 3
18 1 22 -5 3 -6 12 -11 18 -11 8 0 8 3 -1 9 -11 7 -11 9 2 14 10 4 16 1 16 -8
0 -22 -4 -30 -12 -27 -16 5 -7 -36 8 -42 12 -4 15 -2 10 9 -7 18 -2 19 24 3
17 -11 23 -9 41 8 13 14 17 24 11 28 -6 4 -16 -3 -22 -14 l-11 -21 -17 23 c-9
13 -22 32 -28 42 -12 23 -45 31 -37 10z"/>
<path d="M627 469 c7 -7 15 -10 18 -7 3 3 -2 9 -12 12 -14 6 -15 5 -6 -5z"/>
<path d="M670 465 c-7 -9 -10 -18 -6 -22 3 -3 6 -1 6 5 0 6 7 9 16 5 13 -5 13
-7 2 -14 -7 -5 -8 -9 -3 -9 6 1 19 8 30 17 16 13 17 15 3 10 -12 -4 -18 -1
-18 8 0 19 -14 19 -30 0z"/>
<path d="M27 433 c13 -20 14 -30 3 -68 -7 -25 -17 -48 -22 -51 -5 -3 -1 -12 9
-20 24 -18 33 -17 33 3 0 9 12 31 26 50 22 29 28 32 42 21 15 -11 15 -11 5 2
-10 13 -8 18 8 28 11 7 17 17 14 22 -8 13 -35 1 -35 -16 0 -8 -5 -14 -11 -14
-6 0 -8 7 -5 16 5 12 0 15 -22 12 -17 -2 -26 2 -24 10 1 6 -4 12 -10 12 -9 0
-8 3 2 10 12 7 10 9 -7 8 -19 -2 -20 -4 -6 -25z m35 -91 c-17 -22 -29 -42 -27
-46 3 -3 -1 -1 -8 5 -9 8 -8 12 6 20 11 7 16 18 13 35 -5 25 8 33 18 12 3 -7
4 1 0 17 -5 28 -4 29 12 13 16 -16 15 -19 -14 -56z"/>
<path d="M747 432 c3 -7 9 -10 12 -5 3 4 10 11 15 15 4 4 -1 6 -12 5 -12 -1
-18 -6 -15 -15z"/>
<path d="M814 390 c-1 -33 -7 -57 -19 -70 -10 -11 -14 -20 -9 -20 5 0 9 -11 9
-24 0 -15 -5 -22 -13 -18 -7 2 -11 10 -9 16 3 8 -5 11 -24 10 -16 -1 -32 2
-35 7 -3 5 0 9 7 9 7 0 10 3 6 6 -3 3 -16 -2 -29 -11 -15 -11 -17 -15 -5 -12
9 4 17 2 17 -3 0 -6 -4 -10 -10 -10 -5 0 -10 -8 -10 -18 0 -10 -6 -27 -14 -38
-13 -18 -13 -21 2 -21 9 0 20 5 24 11 5 8 8 7 8 -1 0 -7 5 -13 11 -13 8 0 8 5
-1 15 -7 8 -16 12 -21 9 -5 -3 -9 -1 -9 5 0 14 18 23 25 12 9 -15 35 -1 35 18
1 14 2 14 14 -1 7 -10 18 -18 23 -18 13 0 47 50 39 58 -3 3 -6 0 -6 -6 0 -7
-4 -12 -9 -12 -5 0 -8 11 -8 25 0 20 2 23 12 15 18 -15 27 2 20 40 -5 28 -4
30 14 21 15 -8 25 -6 45 10 27 21 34 39 16 39 -5 0 -10 -7 -10 -15 0 -21 -9
-19 -31 8 -10 13 -18 17 -19 9 0 -7 -5 -10 -10 -7 -6 4 -8 11 -5 16 4 5 0 9
-7 9 -9 0 -13 -16 -14 -50z m51 -1 c11 -17 -1 -21 -15 -4 -8 9 -8 15 -2 15 6
0 14 -5 17 -11z m-130 -128 c-3 -6 -11 -11 -17 -11 -6 0 -6 6 2 15 14 17 26
13 15 -4z"/>
<path d="M585 420 c-3 -6 -10 -8 -14 -6 -3 3 -7 -4 -7 -14 0 -11 7 -22 14 -25
10 -4 12 0 8 11 -4 12 -1 14 14 9 23 -7 27 7 6 24 -10 8 -16 9 -21 1z"/>
<path d="M149 357 c-14 -10 -14 -14 -3 -25 8 -7 14 -22 14 -33 0 -26 29 -69
46 -69 8 0 14 7 14 15 0 8 5 15 11 15 6 0 9 -8 7 -18 -4 -15 -1 -18 19 -14 30
6 38 24 24 50 -8 16 -6 25 9 45 11 13 16 28 12 32 -4 5 -1 5 6 1 11 -7 11 -11
-1 -24 -15 -18 -19 -52 -5 -52 4 0 8 8 8 18 0 11 9 29 20 42 23 27 26 38 6 21
-10 -8 -16 -9 -21 -1 -11 17 -20 11 -34 -22 -18 -41 -20 -60 -8 -75 14 -19 -1
-16 -34 8 -19 14 -27 16 -23 6 3 -8 -1 -17 -8 -20 -10 -3 -13 3 -12 24 2 29
-15 89 -26 89 -3 0 -12 -6 -21 -13z m39 -62 c0 -35 -13 -31 -14 5 -1 16 2 28
6 25 4 -3 8 -16 8 -30z"/>
<path d="M361 354 c0 -11 3 -14 6 -6 3 7 2 16 -1 19 -3 4 -6 -2 -5 -13z"/>
<path d="M10 265 c9 -10 9 -15 1 -15 -6 0 -11 -7 -11 -16 0 -13 3 -14 14 -5
12 10 17 8 26 -8 6 -12 7 -21 1 -21 -5 0 -11 4 -13 9 -1 5 -9 2 -17 -6 -11
-12 -10 -14 5 -11 13 2 18 -2 16 -14 -1 -9 2 -19 7 -22 6 -4 4 -20 -5 -42 -9
-21 -12 -44 -7 -57 4 -12 6 -28 4 -36 -1 -7 2 -10 8 -6 7 4 10 27 8 56 -3 39
-1 49 9 45 8 -3 14 -1 14 4 0 6 -5 10 -11 10 -5 0 -7 5 -4 10 4 6 21 -1 43
-17 20 -16 31 -21 24 -12 -10 14 -10 18 3 22 8 4 14 3 12 -1 -1 -4 1 -8 6 -9
18 -7 26 -2 24 16 0 11 -4 18 -8 15 -4 -2 -10 0 -14 6 -3 6 4 11 17 11 18 1
19 2 5 6 -11 3 -29 -5 -43 -18 -21 -20 -29 -19 -25 3 0 4 -10 3 -24 -2 -29
-11 -41 2 -26 27 7 13 10 14 11 4 0 -8 3 -12 6 -8 3 3 -1 16 -10 29 -9 12 -16
30 -16 39 0 9 -7 20 -16 23 -24 9 -28 7 -14 -9z"/>
<path d="M361 224 c0 -11 3 -14 6 -6 3 7 2 16 -1 19 -3 4 -6 -2 -5 -13z"/>
<path d="M149 210 c-15 -16 -15 -17 7 -17 13 0 24 5 24 13 0 21 -14 22 -31 4z"/>
<path d="M293 223 c-7 -2 -9 -11 -6 -19 4 -10 0 -12 -13 -8 -17 6 -17 5 1 -9
11 -9 25 -16 30 -17 6 0 4 4 -3 9 -11 7 -11 9 2 14 11 4 16 1 17 -11 0 -10 3
-12 6 -5 6 17 -19 51 -34 46z"/>
<path d="M815 220 c-4 -6 -4 -14 -1 -18 12 -11 45 -12 52 0 5 7 3 8 -6 3 -8
-5 -18 -2 -26 9 -8 12 -14 14 -19 6z"/>
<path d="M190 200 c0 -5 5 -10 11 -10 5 0 7 5 4 10 -3 6 -8 10 -11 10 -2 0 -4
-4 -4 -10z"/>
<path d="M785 200 c-3 -5 -1 -10 4 -10 6 0 11 5 11 10 0 6 -2 10 -4 10 -3 0
-8 -4 -11 -10z"/>
<path d="M488 158 c2 -15 5 -28 7 -28 2 0 5 13 7 28 2 17 -1 29 -7 29 -6 0 -9
-12 -7 -29z"/>
<path d="M675 170 c18 -8 18 -9 -5 -10 -15 -1 -35 -13 -50 -33 -13 -18 -18
-26 -9 -20 13 11 19 9 37 -10 11 -12 24 -34 27 -50 7 -28 28 -50 24 -26 -4 33
1 50 14 43 9 -6 9 -5 0 8 -7 8 -14 27 -15 41 -1 14 -6 23 -10 21 -4 -3 -8 -1
-8 5 0 5 5 13 10 16 18 11 11 25 -12 24 -22 0 -22 -1 -3 -9z m-10 -40 c-5 -14
-2 -18 7 -15 10 4 14 -2 14 -20 l0 -26 -25 25 c-20 21 -22 27 -11 40 17 22 23
20 15 -4z"/>
<path d="M585 160 c-3 -6 -11 -7 -17 -4 -7 4 -8 2 -4 -5 4 -6 3 -18 -3 -25
-11 -13 -13 -30 -10 -93 0 -27 19 -31 19 -5 0 10 7 27 15 38 14 21 11 34 -9
34 -6 0 -4 -5 4 -11 12 -8 12 -10 1 -7 -8 2 -15 12 -17 22 -2 12 2 16 13 12
11 -5 13 -2 9 10 -4 12 -1 14 14 9 23 -7 27 7 6 24 -10 8 -16 9 -21 1z"/>
<path d="M846 161 c-4 -6 -11 -9 -16 -6 -5 3 -8 -3 -7 -14 0 -11 4 -18 8 -15
4 2 10 -2 13 -8 3 -7 3 -3 0 10 -5 21 -4 22 14 11 16 -10 18 -16 9 -30 -8 -13
-16 -15 -28 -8 -10 5 -20 9 -22 9 -6 0 -21 -49 -21 -70 -1 -9 -10 -15 -24 -15
-12 0 -22 -3 -22 -7 0 -5 0 -11 0 -15 0 -4 5 -2 12 5 7 7 17 8 28 2 15 -8 17
-5 14 20 -2 16 0 31 4 34 4 2 9 -7 10 -21 3 -33 12 -44 12 -15 0 32 1 33 47
78 43 41 51 54 33 54 -5 0 -10 -7 -10 -15 0 -21 -9 -19 -29 7 -13 15 -20 18
-25 9z m-1 -79 c-3 -3 -11 0 -18 7 -9 10 -8 11 6 5 10 -3 15 -9 12 -12z"/>
<path d="M492 72 c-2 -37 -5 -51 -14 -46 -6 4 -8 3 -4 -4 9 -14 64 -12 70 3 6
17 -10 40 -18 26 -4 -6 -2 -11 5 -11 7 0 9 -3 5 -8 -19 -18 -31 -4 -37 43 l-6
50 -1 -53z"/>
<path d="M75 100 c-4 -6 -10 -8 -14 -6 -3 3 -7 -4 -7 -15 0 -24 0 -24 20 6 9
14 14 25 12 25 -3 0 -8 -5 -11 -10z"/>
<path d="M154 98 c-5 -7 -3 -8 6 -3 9 6 11 4 6 -4 -5 -7 -15 -10 -25 -7 -15 6
-15 5 0 -6 9 -7 17 -17 18 -23 4 -16 7 -16 19 -2 12 14 5 57 -9 57 -4 0 -11
-5 -15 -12z m21 -27 c3 -5 2 -12 -3 -15 -5 -3 -9 1 -9 9 0 17 3 19 12 6z"/>
<path d="M386 96 c7 -19 20 -21 30 -3 4 6 4 9 -1 5 -4 -4 -14 -3 -22 4 -11 8
-12 7 -7 -6z"/>
<path d="M101 84 c0 -11 3 -14 6 -6 3 7 2 16 -1 19 -3 4 -6 -2 -5 -13z"/>
<path d="M232 70 c0 -14 2 -19 5 -12 2 6 2 18 0 25 -3 6 -5 1 -5 -13z"/>
<path d="M6 51 c-4 -6 -2 -11 5 -11 9 0 9 -3 0 -14 -7 -8 -8 -17 -3 -20 12 -7
22 28 12 44 -5 9 -9 9 -14 1z"/>
<path d="M189 48 c-9 -31 -5 -36 28 -36 38 0 40 5 2 12 -13 2 -23 9 -21 15 2
9 -6 17 -9 9z"/>
<path d="M269 41 c9 -6 10 -11 2 -15 -6 -4 -11 -13 -11 -19 0 -7 7 -3 15 7 15
20 12 36 -8 36 -8 0 -8 -3 2 -9z"/>
<path d="M707 44 c-8 -8 3 -34 15 -34 6 0 4 8 -3 17 -12 15 -12 16 4 10 11 -4
16 -3 12 3 -7 11 -19 13 -28 4z"/>
</g>
</svg>
